<?xml version="1.0" encoding="UTF-8"?>
<svg version="1.1" xmlns="http://www.w3.org/2000/svg" width="1024" height="1024">
<path d="M0 0 C337.92 0 675.84 0 1024 0 C1024 337.92 1024 675.84 1024 1024 C686.08 1024 348.16 1024 0 1024 C0 686.08 0 348.16 0 0 Z " fill="#2E3035" transform="translate(0,0)"/>
<path d="M0 0 C14.19 0 28.38 0 43 0 C43 24.75 43 49.5 43 75 C70.72 75 98.44 75 127 75 C127 50.25 127 25.5 127 0 C141.52 0 156.04 0 171 0 C171 64.68 171 129.36 171 196 C156.48 196 141.96 196 127 196 C127 168.94 127 141.88 127 114 C99.28 114 71.56 114 43 114 C43 140.73 43 167.46 43 195 C28.81 195 14.62 195 0 195 C0 130.65 0 66.3 0 0 Z " fill="#FBFCFB" transform="translate(553,375)"/>
<path d="M0 0 C3.54579059 0.1238151 7.09261452 0.17778241 10.63995361 0.23803711 C17.57282636 0.3658956 24.50159614 0.57007655 31.43096924 0.82397461 C27.24923699 7.2089072 27.24923699 7.2089072 24.73175049 10.08569336 C24.00834473 10.91943481 24.00834473 10.91943481 23.27032471 11.77001953 C22.7664624 12.34469971 22.2626001 12.91937988 21.74346924 13.51147461 C18.0274389 17.79220138 14.36399133 22.09724399 10.80596924 26.51147461 C7.00248691 31.20060535 2.97725638 35.64208998 -1.10809326 40.08569336 C-4.2539954 43.58613367 -7.2056346 47.22257936 -10.16278076 50.88256836 C-12.87488726 54.19785438 -15.65008857 57.45267138 -18.44403076 60.69897461 C-23.72158861 66.83228482 -28.95969733 72.99733725 -34.17938232 79.17993164 C-35.63792972 80.90548649 -37.09925248 82.62865901 -38.56121826 84.35131836 C-39.0542041 84.93260498 -39.54718994 85.5138916 -40.05511475 86.11279297 C-40.99161649 87.21690411 -41.92859339 88.3206125 -42.8661499 89.42382812 C-44.10563304 90.88616073 -45.33750907 92.35493091 -46.56903076 93.82397461 C-47.35406982 94.69022461 -48.13910889 95.55647461 -48.94793701 96.44897461 C-50.81315644 98.61917979 -50.81315644 98.61917979 -50.32562256 100.77587891 C-49.51579504 102.96808383 -48.63413999 104.23121365 -47.08465576 105.96850586 C-46.56830566 106.55510986 -46.05195557 107.14171387 -45.5199585 107.74609375 C-44.67799927 108.68183228 -44.67799927 108.68183228 -43.81903076 109.63647461 C-42.62745123 110.98527988 -41.43604991 112.33424261 -40.24481201 113.68334961 C-39.63331299 114.37106445 -39.02181396 115.0587793 -38.39178467 115.76733398 C-35.57027627 118.95088432 -32.7888248 122.16866906 -30.00653076 125.38647461 C-29.47084473 126.00401611 -28.93515869 126.62155762 -28.38323975 127.2578125 C-25.20507735 130.92293207 -22.04623198 134.60379454 -18.89862061 138.29516602 C-14.79719472 143.10414396 -10.65956373 147.85713319 -6.38153076 152.51147461 C-3.17258032 156.0065735 -0.10837239 159.56681301 2.86846924 163.26147461 C6.52173413 167.79100762 10.36685585 172.07050718 14.32940674 176.32568359 C18.23541146 180.54595666 21.87619161 184.94956234 25.45831299 189.44897461 C27.39619143 191.86829539 27.39619143 191.86829539 29.68487549 194.01147461 C31.43096924 195.82397461 31.43096924 195.82397461 31.43096924 197.82397461 C23.7640162 198.03338846 16.09736286 198.19285923 8.42819309 198.29028416 C4.86599103 198.33706998 1.30575843 198.40041081 -2.25531006 198.50292969 C-6.35876261 198.62031075 -10.46017906 198.66324976 -14.56512451 198.70288086 C-15.8310997 198.74933243 -17.09707489 198.795784 -18.40141296 198.84364319 C-25.0942682 198.84743279 -28.86113567 198.32627872 -33.7255249 193.51904297 C-35.04057274 191.98237823 -36.32424539 190.41808838 -37.56903076 188.82397461 C-38.73068161 187.48626904 -39.89647757 186.1521342 -41.06903076 184.82397461 C-41.62590576 184.17428711 -42.18278076 183.52459961 -42.75653076 182.85522461 C-45.42510719 179.86457861 -48.28687584 177.08278163 -51.16278076 174.29272461 C-53.79382142 171.59334523 -56.24761595 168.77560364 -58.71746826 165.92944336 C-61.67215668 162.56957616 -64.74560053 159.32491984 -67.81903076 156.07397461 C-75.60244471 147.80518073 -83.30838082 139.47394859 -90.88153076 131.01147461 C-94.7607334 126.6849405 -98.72142591 122.43940723 -102.69403076 118.19897461 C-104.98818919 115.74295463 -107.27958739 113.28438991 -109.56903076 110.82397461 C-110.76592529 109.53813477 -110.76592529 109.53813477 -111.98699951 108.22631836 C-112.61219482 107.53666992 -113.23739014 106.84702148 -113.88153076 106.13647461 C-114.39328857 105.57573242 -114.90504639 105.01499023 -115.43231201 104.43725586 C-116.79657191 102.5010382 -117.39725054 101.19639875 -117.56903076 98.82397461 C-116.38153076 97.18334961 -116.38153076 97.18334961 -114.56903076 95.57397461 C-111.96237662 93.14762263 -109.51770746 90.71152147 -107.19403076 88.01147461 C-100.78217857 80.58797463 -94.15254947 73.36249444 -87.51312256 66.14306641 C-85.01559956 63.42147967 -82.54847903 60.67978465 -80.13153076 57.88647461 C-76.50758432 53.7036545 -72.7364733 49.66125654 -68.97381592 45.60375977 C-65.72287564 42.09184717 -62.53918764 38.53396043 -59.40887451 34.91381836 C-57.0023292 32.18026902 -54.5359988 29.50283455 -52.06903076 26.82397461 C-49.030129 23.52370585 -46.00746976 20.21448114 -43.06903076 16.82397461 C-42.27009399 15.96787598 -42.27009399 15.96787598 -41.45501709 15.09448242 C-39.4442641 12.81454578 -39.4442641 12.81454578 -37.89984131 9.8347168 C-29.15033831 -3.35718075 -14.12728435 -0.54576823 0 0 Z " fill="#002848" transform="translate(399.56903076171875,374.176025390625)"/>
<path d="M0 0 C1.89896278 0.09290314 1.89896278 0.09290314 3.83628845 0.18768311 C5.15531662 0.20466248 6.47434479 0.22164185 7.83334351 0.23913574 C11.31311815 0.28460602 14.78672183 0.40210474 18.26408386 0.5355835 C21.82310985 0.65914167 25.38315041 0.71331207 28.94371033 0.77362061 C35.90911061 0.90168534 42.87044908 1.10601536 49.8323822 1.35955811 C48.4071573 5.09729544 46.90411361 7.78191232 44.3323822 10.85955811 C41.14058097 14.7484856 38.01475482 18.67685213 34.9573822 22.67205811 C34.53561707 23.22216553 34.11385193 23.77227295 33.67930603 24.33905029 C32.81971857 25.46040714 31.96042537 26.58198961 31.10142517 27.70379639 C29.07890816 30.34264024 27.04877487 32.97561479 25.0198822 35.60955811 C19.4943932 42.78973901 13.99374291 49.98889119 8.49253845 57.18768311 C6.88773127 59.28714851 5.28210304 61.38598274 3.6761322 63.48455811 C0.39305964 67.77483298 -2.88768309 72.066884 -6.1676178 76.35955811 C-6.85952209 77.26480225 -7.55142639 78.17004639 -8.26429749 79.10272217 C-10.46225878 81.9792226 -12.658845 84.85676833 -14.8551178 87.73455811 C-15.55096985 88.6449585 -16.2468219 89.55535889 -16.96376038 90.49334717 C-17.61240051 91.34380615 -18.26104065 92.19426514 -18.92933655 93.07049561 C-19.50643372 93.82636963 -20.08353088 94.58224365 -20.67811584 95.36102295 C-23.27244499 98.42334864 -23.27244499 98.42334864 -24.0973053 102.14862061 C-22.71794582 105.42894609 -20.52386113 108.00229957 -18.2926178 110.73455811 C-17.28074711 111.99745722 -16.26903249 113.26048139 -15.25746155 114.52362061 C-14.74038635 115.16460693 -14.22331116 115.80559326 -13.69056702 116.46600342 C-11.38826776 119.32856082 -9.12150195 122.21854354 -6.8551178 125.10955811 C-6.18621521 125.96021851 -6.18621521 125.96021851 -5.50379944 126.82806396 C-2.32718973 130.87005866 0.82870126 134.92781609 3.97984314 138.98968506 C8.90536948 145.33872344 13.8547447 151.66351779 18.8948822 157.92205811 C23.68241704 163.86847087 28.33594747 169.90806638 32.94859314 175.99090576 C37.259927 181.65980119 41.69501739 187.22080224 46.22691345 192.71502686 C49.8323822 197.14348304 49.8323822 197.14348304 49.8323822 199.35955811 C42.23592768 199.73295903 34.64043829 200.01585915 27.03685474 200.18855286 C23.50385872 200.27153008 19.9772035 200.38361616 16.44786072 200.56658936 C-8.23806436 201.81342665 -8.23806436 201.81342665 -14.83827209 195.91790771 C-17.7590101 192.6473886 -20.01669072 189.13718484 -22.08752441 185.2819519 C-23.6170717 182.55960191 -25.56556306 180.27557742 -27.6051178 177.92205811 C-28.31023499 177.06096436 -29.01535217 176.19987061 -29.74183655 175.31268311 C-32.19758417 172.3230773 -34.65829629 169.33761605 -37.11976624 166.35272217 C-46.83343694 154.57074136 -56.52716587 142.77925372 -65.91859436 130.73797607 C-70.86487747 124.42292153 -75.98525208 118.25212273 -81.10121155 112.07440186 C-81.89180969 111.10929687 -81.89180969 111.10929687 -82.69837952 110.12469482 C-83.97590875 108.58987655 -85.30404534 107.09745928 -86.64027405 105.61346436 C-88.1676178 103.35955811 -88.1676178 103.35955811 -87.92494202 101.43328857 C-87.09760133 99.16783667 -86.1252309 97.76902346 -84.57777405 95.92596436 C-84.0459552 95.28393066 -83.51413635 94.64189697 -82.96620178 93.98040771 C-82.39329407 93.30115234 -81.82038635 92.62189697 -81.2301178 91.92205811 C-80.03343137 90.47788298 -78.83813321 89.03255644 -77.6441803 87.58612061 C-77.05153381 86.86972412 -76.45888733 86.15332764 -75.84828186 85.41522217 C-73.53683875 82.58803579 -71.3181411 79.70210173 -69.1051178 76.79705811 C-65.04481111 71.47529692 -60.89209009 66.23677456 -56.70082092 61.01776123 C-51.93233965 55.07700287 -47.2241593 49.09027097 -42.52650452 43.09344482 C-40.70119162 40.76441641 -38.87289501 38.43774008 -37.04432678 36.11126709 C-36.12821543 34.94561733 -35.21236156 33.77976516 -34.29676819 32.6137085 C-31.98436861 29.66897035 -29.66880466 26.72681667 -27.3473053 23.78924561 C-26.87744202 23.19369873 -26.40757874 22.59815186 -25.92347717 21.98455811 C-22.2262147 17.29891853 -22.2262147 17.29891853 -20.69992065 15.41989136 C-19.04529837 13.26779366 -19.04529837 13.26779366 -17.40814209 10.41030884 C-12.65342152 2.9488914 -9.22675953 -0.00696578 0 0 Z " fill="#019ADE" transform="translate(468.16761779785156,372.64044189453125)"/>
<path d="M0 0 C0.66 0 1.32 0 2 0 C2.51046875 1.17755859 2.51046875 1.17755859 3.03125 2.37890625 C8.05320028 13.26425062 13.78827324 18.82155554 25 23 C25 23.66 25 24.32 25 25 C24.21496094 25.3403125 23.42992187 25.680625 22.62109375 26.03125 C11.73574938 31.05320028 6.17844446 36.78827324 2 48 C1.34 48 0.68 48 0 48 C-0.3403125 47.21496094 -0.680625 46.42992187 -1.03125 45.62109375 C-6.05320028 34.73574938 -11.78827324 29.17844446 -23 25 C-23 24.34 -23 23.68 -23 23 C-22.21496094 22.6596875 -21.42992187 22.319375 -20.62109375 21.96875 C-9.73574938 16.94679972 -4.17844446 11.21172676 0 0 Z " fill="#939497" transform="translate(967,944)"/>
<path d="M0 0 C6 0 6 0 8.38671875 2.09765625 C9.52560547 3.56525391 9.52560547 3.56525391 10.6875 5.0625 C11.10177246 5.5874707 11.51604492 6.11244141 11.94287109 6.65332031 C13.32070231 8.41756006 14.66322176 10.20447326 16 12 C16.5038623 12.67337402 17.00772461 13.34674805 17.52685547 14.04052734 C20.72664417 18.33190281 23.86519083 22.65949499 27 27 C27.33 18.09 27.66 9.18 28 0 C29.98 0 31.96 0 34 0 C34 12.54 34 25.08 34 38 C28 38 28 38 26.14477539 36.50634766 C25.63422607 35.81589355 25.12367676 35.12543945 24.59765625 34.4140625 C23.72657227 33.26357422 23.72657227 33.26357422 22.83789062 32.08984375 C22.25201172 31.27644531 21.66613281 30.46304688 21.0625 29.625 C20.48048828 28.85027344 19.89847656 28.07554687 19.29882812 27.27734375 C15.06822067 21.60842346 11.05710942 15.79587059 7 10 C6.67 19.24 6.34 28.48 6 38 C4.02 38 2.04 38 0 38 C0 25.46 0 12.92 0 0 Z " fill="#EBECED" transform="translate(477,625)"/>
<path d="M0 0 C1.88154202 0.94580187 3.70113503 2.01309685 5.50390625 3.1015625 C5.50390625 4.4215625 5.50390625 5.7415625 5.50390625 7.1015625 C1.50390625 7.1015625 1.50390625 7.1015625 -0.68359375 6.1015625 C-4.70012665 4.67346191 -8.29241457 4.25508785 -12.49609375 5.1015625 C-15.87122092 7.14671391 -18.71752625 9.5444275 -20.49609375 13.1015625 C-20.64461219 15.03515836 -20.71740208 16.97498347 -20.74609375 18.9140625 C-20.771875 19.95175781 -20.79765625 20.98945312 -20.82421875 22.05859375 C-20.35014415 26.45507129 -18.70598205 29.06959895 -15.37109375 31.9140625 C-10.3831612 33.97429551 -5.52564715 33.76427381 -0.43359375 32.1015625 C0.20578125 31.7715625 0.84515625 31.4415625 1.50390625 31.1015625 C1.83390625 28.1315625 2.16390625 25.1615625 2.50390625 22.1015625 C-1.12609375 22.1015625 -4.75609375 22.1015625 -8.49609375 22.1015625 C-8.49609375 20.4515625 -8.49609375 18.8015625 -8.49609375 17.1015625 C-2.88609375 17.1015625 2.72390625 17.1015625 8.50390625 17.1015625 C8.50390625 22.7115625 8.50390625 28.3215625 8.50390625 34.1015625 C0.95987275 38.53922926 -4.73452774 40.25540115 -13.49609375 39.1015625 C-19.26949036 37.1071164 -22.82068404 33.47024519 -26.30859375 28.5390625 C-28.30727689 22.75340079 -28.82410189 16.47896593 -26.546875 10.6875 C-20.76716549 0.9513332 -11.08780486 -3.99091568 0 0 Z " fill="#EEEEEF" transform="translate(551.49609375,624.8984375)"/>
<path d="M0 0 C9.57 0 19.14 0 29 0 C29 1.65 29 3.3 29 5 C21.41 5 13.82 5 6 5 C6 8.63 6 12.26 6 16 C12.93 16 19.86 16 27 16 C27 17.65 27 19.3 27 21 C20.07 21 13.14 21 6 21 C6 24.96 6 28.92 6 33 C13.59 33 21.18 33 29 33 C29 34.65 29 36.3 29 38 C19.43 38 9.86 38 0 38 C0 25.46 0 12.92 0 0 Z " fill="#ECEDED" transform="translate(631,625)"/>
<path d="M0 0 C1.65 0 3.3 0 5 0 C5 5.28 5 10.56 5 16 C11.93 16 18.86 16 26 16 C26 10.72 26 5.44 26 0 C27.98 0 29.96 0 32 0 C32 12.54 32 25.08 32 38 C30.02 38 28.04 38 26 38 C26 32.72 26 27.44 26 22 C19.07 22 12.14 22 5 22 C5 27.28 5 32.56 5 38 C3.35 38 1.7 38 0 38 C0 25.46 0 12.92 0 0 Z " fill="#EDEEEE" transform="translate(384,625)"/>
<path d="M0 0 C1.98 0 3.96 0 6 0 C6.01981934 0.82725586 6.03963867 1.65451172 6.06005859 2.50683594 C6.15531212 6.25487806 6.26499109 10.00236317 6.375 13.75 C6.4059375 15.05195312 6.436875 16.35390625 6.46875 17.6953125 C6.50742187 18.94570313 6.54609375 20.19609375 6.5859375 21.484375 C6.6173584 22.63647461 6.6487793 23.78857422 6.68115234 24.97558594 C6.98699916 27.87668117 7.42180973 29.57770258 9 32 C11.93992691 34.01612822 14.06749154 34.22054667 17.5625 33.8125 C18.32691406 33.73644531 19.09132813 33.66039062 19.87890625 33.58203125 C22.41474463 32.88619346 23.38742428 32.05370586 25 30 C26.05836661 26.82490018 26.20243789 24.35717617 26.31640625 21.01953125 C26.35830078 19.85615234 26.40019531 18.69277344 26.44335938 17.49414062 C26.48267578 16.27919922 26.52199219 15.06425781 26.5625 13.8125 C26.60568359 12.58595703 26.64886719 11.35941406 26.69335938 10.09570312 C26.7995309 7.06391619 26.90157952 4.03204685 27 1 C28.98 1 30.96 1 33 1 C33.08760181 5.18736668 33.14059435 9.37449531 33.1875 13.5625 C33.21263672 14.74392578 33.23777344 15.92535156 33.26367188 17.14257812 C33.32411764 24.33562442 33.34366913 30.02326285 28.53515625 35.7421875 C23.01714535 39.98681127 17.86698137 40.88221636 11 40 C7.625 38.1875 7.625 38.1875 5 36 C4.4225 35.525625 3.845 35.05125 3.25 34.5625 C0.01851092 30.52313865 -0.24118038 26.40925111 -0.1953125 21.38671875 C-0.18886719 20.13955078 -0.18242187 18.89238281 -0.17578125 17.60742188 C-0.15902344 16.31384766 -0.14226562 15.02027344 -0.125 13.6875 C-0.11597656 12.37458984 -0.10695313 11.06167969 -0.09765625 9.70898438 C-0.07411797 6.47247087 -0.0412352 3.23632851 0 0 Z " fill="#ECECEC" transform="translate(430,624)"/>
<path d="M0 0 C1.98 0 3.96 0 6 0 C6 10.89 6 21.78 6 33 C12.93 33 19.86 33 27 33 C27 34.65 27 36.3 27 38 C18.09 38 9.18 38 0 38 C0 25.46 0 12.92 0 0 Z " fill="#E8E9E9" transform="translate(593,625)"/>
</svg>
